<svg width="128" height="128" viewBox="0 0 128 128" fill="none" xmlns="http://www.w3.org/2000/svg">
<path d="M60.46 60.5C60.46 60.5 56.62 56.13 52.71 57.89C47.48 60.24 51.06 66.11 44.07 68.53C36.44 71.17 31.03 76.2 33.64 82.31C36.44 88.86 47.61 89.23 48.14 106.04C48.39 114.09 54.14 113.89 56.68 111.24C61.14 106.59 60.7 92.19 65.31 87.06C69.92 81.93 81.35 83.24 85.49 73.68C85.49 73.68 78.39 80.81 69.37 73.78C65.1 70.44 65.15 64.88 65.15 64.88L60.46 60.5V60.5Z" fill="#FFFDE7"/>
<path d="M69.28 49.96C69.28 49.96 69.75 50.44 68.39 49.27C65.49 46.78 59.52 54.77 55.03 50.31C50.86 46.16 56.17 38.95 60.61 34.62C63.83 31.49 61.5 28.5 58.88 28.65C55.94 28.82 48.45 30.47 43.42 37.94C35.78 49.28 39.4 55.3 31.44 61.37C23.49 67.42 5.91998 69.56 4.70998 84.92C4.01998 93.73 8.10998 98.75 13.35 105.19C16.98 109.65 25.69 117.36 32.18 120.6C38.67 123.84 45.86 125.64 52.5 121.21C67.19 111.42 64.56 100.29 67.04 93.85C69.89 86.47 78.87 88.85 86.12 81.93C90.91 77.36 91.33 73.42 91 70.17C90.77 67.84 89.88 66.91 88.66 66.34C87.6 65.84 85.81 66.53 84.91 68.36C82.63 72.99 78.97 75.7 74.13 71.88C70.22 68.79 73.37 62.72 73.37 62.72L69.28 49.96V49.96Z" fill="url(#paint0_radial)"/>
<path d="M58.29 58.87C57.49 58.27 53.23 55.56 49.53 58.97C45.54 62.64 48.79 67.65 42.48 68.62C34.5 69.85 29.76 75.17 32.37 81.28C35.17 87.83 47.61 89.22 48.14 106.03C48.39 114.08 54.02 113.75 56.68 111.23C62.84 105.4 59.28 92.52 65.31 87.05C70.51 82.33 78.4 84.91 82.18 78.3C82.85 77.13 82.89 76.11 81.29 76.77C78.34 78 74.66 78.62 70.65 74.69C67.37 71.47 68.35 67.6 68.35 67.6C68.35 67.6 59.05 59.44 58.29 58.87V58.87Z" fill="#FFFDE7"/>
<path d="M54.19 108.88C55.648 108.88 56.83 107.698 56.83 106.24C56.83 104.782 55.648 103.6 54.19 103.6C52.732 103.6 51.55 104.782 51.55 106.24C51.55 107.698 52.732 108.88 54.19 108.88Z" fill="#424242"/>
<path d="M57.563 98.8888C58.837 97.5319 58.7829 95.4115 57.4421 94.1526C56.1014 92.8937 53.9817 92.9732 52.7078 94.33C51.4338 95.6869 51.4879 97.8073 52.8286 99.0662C54.1694 100.325 56.289 100.246 57.563 98.8888Z" fill="#424242"/>
<path d="M109.77 21.43L105.43 17.49L101.14 13.5L57.22 57.85C56.77 58.29 56.94 59.15 57.6 59.78L62.38 64.34L67.33 68.72C68.01 69.32 68.89 69.42 69.28 68.93L109.77 21.43V21.43Z" fill="url(#paint1_linear)"/>
<path d="M96.26 19.31C98.9894 21.807 101.716 24.307 104.44 26.81C104.44 26.81 110.81 28.29 112.88 22.97L116.54 13.58C116.54 13.58 117.53 14.5 119.17 14.64C121.68 14.86 124.24 11.88 123.4 9.19C122.35 5.83 120.72 4.47 114.62 6.14C112.43 6.74 100.94 9.87 100.94 9.87C94.71 11.85 95.17 18.32 96.26 19.31V19.31Z" fill="url(#paint2_linear)"/>
<path d="M21.97 88.96C21.68 89.27 21.61 89.67 21.81 89.86L40.13 107.06C40.33 107.25 40.73 107.15 41.02 106.84L44.38 103.27C44.67 102.96 44.74 102.56 44.54 102.37L26.22 85.17C26.02 84.98 25.62 85.08 25.33 85.39L21.97 88.96V88.96Z" fill="#424242"/>
<defs>
<radialGradient id="paint0_radial" cx="0" cy="0" r="1" gradientUnits="userSpaceOnUse" gradientTransform="translate(48.1381 78.3518) rotate(-1.805) scale(45.443)">
<stop stop-color="#FF1744"/>
<stop offset="0.256" stop-color="#FD1641"/>
<stop offset="0.425" stop-color="#F81338"/>
<stop offset="0.57" stop-color="#EF0E29"/>
<stop offset="0.7" stop-color="#E10714"/>
<stop offset="0.793" stop-color="#D50000"/>
<stop offset="1" stop-color="#D50000"/>
</radialGradient>
<linearGradient id="paint1_linear" x1="99.915" y1="24.5092" x2="63.1338" y2="63.8201" gradientUnits="userSpaceOnUse">
<stop stop-color="#6D6C6B"/>
<stop offset="1" stop-color="#504F4F"/>
</linearGradient>
<linearGradient id="paint2_linear" x1="116.602" y1="5.4033" x2="97.5407" y2="26.1473" gradientUnits="userSpaceOnUse">
<stop stop-color="#FF1744"/>
<stop offset="0.256" stop-color="#FD1641"/>
<stop offset="0.425" stop-color="#F81338"/>
<stop offset="0.57" stop-color="#EF0E29"/>
<stop offset="0.7" stop-color="#E10714"/>
<stop offset="0.793" stop-color="#D50000"/>
<stop offset="1" stop-color="#D50000"/>
</linearGradient>
</defs>
</svg>
