<svg width="73" height="84" viewBox="0 0 73 84" fill="none" xmlns="http://www.w3.org/2000/svg">
<path d="M65.2369 8.75C61.4869 5.41667 56.9036 3.33333 51.9036 2.08333C50.6536 1.66667 42.7369 0 36.9036 0H36.0702H35.2369C29.4036 0 21.0702 1.66667 19.8202 2.08333C15.2369 3.33333 10.6536 5.41667 6.90356 8.75C-1.42977 16.25 -1.42977 27.9167 2.73689 37.5C6.90356 47.9167 11.4869 57.0833 17.7369 66.25C22.7369 73.3333 28.1536 83.3333 36.0702 83.3333C43.9869 83.3333 49.4036 73.3333 54.8202 66.25C61.0702 57.5 65.6536 47.9167 69.8202 37.5C73.5702 27.9167 73.5702 16.25 65.2369 8.75V8.75Z" fill="white"/>
</svg>
